<svg xmlns="http://www.w3.org/2000/svg" width="36" height="36" viewBox="0 0 36 36" class="svg-inline fit-widget-icon-bottom">
<path fill-rule="evenodd" clip-rule="evenodd" d="M1.875 4.375C1.59886 4.375 1.375 4.59886 1.375 4.875V8.375V31.125C1.375 31.4011 1.59886 31.625 1.875 31.625H8.875C9.12104 31.625 9.33051 31.446 9.36888 31.203L11.5 17.7059L13.6311 31.203C13.6695 31.446 13.879 31.625 14.125 31.625H21.125C21.4011 31.625 21.625 31.4011 21.625 31.125V8.375V4.875C21.625 4.59886 21.4011 4.375 21.125 4.375H1.875ZM2.375 7V5.375H20.625V7H2.375ZM2.375 8V8.375V30.625H8.44775L11.0061 14.422C11.0445 14.179 11.254 14 11.5 14C11.746 14 11.9555 14.179 11.9939 14.422L14.5522 30.625H20.625V8.375V8H2.375Z"></path>
<path fill-rule="evenodd" clip-rule="evenodd" d="M30 4.375L30.3 4.6L34.3 7.6L33.7 8.4L30.5 6V30L33.7 27.6L34.3 28.4L30.3 31.4L30 31.625L29.7 31.4L25.7 28.4L26.3 27.6L29.5 30V6L26.3 8.4L25.7 7.6L29.7 4.6L30 4.375Z"></path>
</svg>